# xmcd
#
# Track frame offsets:
#	183
#	20053
#	32763
#	43640
#	55678
#	64448
#	79020
#	88370
#	108808
#	118443
#	137788
#	145268
#	169123
#	179370
#	189875
#	201080
#
# Disc length: 2898
#
# Revision: 2
# Processed by: cddbd v1.5.1PL0 Copyright (c) Steve Scherf et al.
# Submitted via: CDex 1.50beta10
# Normalized: r0:DSWAP,DSETVAR1,TDELIM( - ),TSWAP
#
DISCID=e70b5010
DTITLE=Various Artist - Lean On Me
DYEAR=1988
DGENRE=Jazz
TTITLE0=Al Jarreau - Lean On Me
TTITLE1=Ella Fitzgerald - Sing Song Swing
TTITLE2=Ray Charles - I Wonder Who's Kissing Her Now
TTITLE3=Sarah Vaughan - Mean To Me
TTITLE4=Nat King Cole - Straighten Up And Fly Right
TTITLE5=Billie Holiday - I Cover The Waterfront
TTITLE6=Al Jarreau - Grandma's Hands
TTITLE7=Ella Fitzgerald - Flying Home
TTITLE8=Tony Bennett - Jeepers Creepers
TTITLE9=Louis Armstrong - I'm Confessin'
TTITLE10=Ella Fitzgerald - Lemon Drop
TTITLE11=Al Jarreau - You
TTITLE12=Anita O'day - Wish You Were Waiting For Me
TTITLE13=Nat King Cole - It's Only A Paper Moon
TTITLE14=Sarah Vaughan - Perdido
TTITLE15=Al Jarreau - Use Me
EXTD=YEAR: 1988
EXTT0=
EXTT1=
EXTT2=
EXTT3=
EXTT4=
EXTT5=
EXTT6=
EXTT7=
EXTT8=
EXTT9=
EXTT10=
EXTT11=
EXTT12=
EXTT13=
EXTT14=
EXTT15=
PLAYORDER=
